<?xml version="1.0" encoding="UTF-8"?>
<svg width="57px" height="51px" viewBox="0 0 57 51" version="1.1" xmlns="http://www.w3.org/2000/svg" xmlns:xlink="http://www.w3.org/1999/xlink">
    <!-- Generator: Sketch 60.1 (88133) - https://sketch.com -->
    <title>Onboarding </title>
    <desc>Created with Sketch.</desc>
    <g id="Pantallas" stroke="none" stroke-width="1" fill="none" fill-rule="evenodd">
        <g id="Onboarding-" transform="translate(-18.000000, -124.000000)" fill-rule="nonzero">
            <g id="video-camera" transform="translate(24.000000, 132.000000)">
                <g id="Group" transform="translate(0.937500, 0.939948)">
                    <path d="M4.47839353,11.8793244 L34.3275146,11.8793244 C35.8029786,11.8793244 37.010376,13.0898744 37.010376,14.5695577 L37.010376,31.4115128 C37.010376,32.8911961 35.8029786,34.1017461 34.3275146,34.1017461 L4.47839353,34.1017461 C3.0025635,34.1017461 1.79516606,32.8911961 1.79516606,31.4115128 L1.79516606,14.5695577 C1.79516606,13.0898744 3.0025635,11.8793244 4.47839353,11.8793244 Z" id="Path" fill="#E0F8F8"></path>
                    <path d="M9.70129397,19.4536146 C15.0446777,19.4536146 19.4029541,15.0843261 19.4029541,9.72699086 C19.4029541,4.36965566 15.0446777,0 9.70129397,0 C4.35791016,0 0,4.36965566 0,9.72699086 C0,15.0843261 4.35791016,19.4536146 9.70129397,19.4536146 Z" id="Path" fill="#51D6DA"></path>
                    <path d="M29.104248,19.4536146 C34.4476318,19.4536146 38.8059083,15.0843261 38.8059083,9.72699086 C38.8059083,4.36965566 34.4476318,0 29.104248,0 C23.7608643,0 19.4029541,4.36965566 19.4029541,9.72699086 C19.4029541,15.0843261 23.7608643,19.4536146 29.104248,19.4536146 Z" id="Path" fill="#51D6DA"></path>
                    <polygon id="Path" fill="#028A8C" points="41.9128417 16.6906821 46.125 16.6906821 46.125 29.2903884 41.9128417 29.2903884"></polygon>
                    <polygon id="Path" fill="#51D6DA" points="37.010376 19.3295121 41.9128417 16.6906821 41.9128417 29.2903884 37.010376 26.6515584"></polygon>
                </g>
                <path d="M10.8647461,31.7588528 L6.86022947,31.7588528 C6.34240725,31.7588528 5.92272947,31.3380793 5.92272947,30.818905 C5.92272947,30.2997308 6.34240725,29.8789572 6.86022947,29.8789572 L10.8647461,29.8789572 C11.3825683,29.8789572 11.8022461,30.2997308 11.8022461,30.818905 C11.8022461,31.3380793 11.3825683,31.7588528 10.8647461,31.7588528 Z" id="Path" fill="#040244"></path>
                <path d="M10.638794,6.13426079 C8.14636228,6.13426079 6.11828616,8.16763216 6.11828616,10.6669386 C6.11828616,13.1662451 8.14599609,15.1992493 10.638794,15.1992493 C13.1315917,15.1992493 15.159668,13.1662451 15.159668,10.6669386 C15.159668,8.16763216 13.1315917,6.13426079 10.638794,6.13426079 Z M10.638794,13.3193538 C9.18017578,13.3193538 7.99328616,12.1297324 7.99328616,10.6669386 C7.99328616,9.20414491 9.18017578,8.01415636 10.638794,8.01415636 C12.0977783,8.01415636 13.284668,9.20414491 13.284668,10.6669386 C13.284668,12.1297324 12.0977783,13.3193538 10.638794,13.3193538 Z" id="Shape" fill="#040244"></path>
                <path d="M30.041748,6.13426079 C27.5489502,6.13426079 25.520874,8.16763216 25.520874,10.6669386 C25.520874,13.1662451 27.5489502,15.1992493 30.041748,15.1992493 C32.5345459,15.1992493 34.5626221,13.1662451 34.5626221,10.6669386 C34.5626221,8.16763216 32.5345459,6.13426079 30.041748,6.13426079 L30.041748,6.13426079 Z M30.041748,13.3193538 C28.5831299,13.3193538 27.395874,12.1297324 27.395874,10.6669386 C27.395874,9.20414491 28.5827636,8.01415636 30.041748,8.01415636 C31.5007324,8.01415636 32.6876221,9.20414491 32.6876221,10.6669386 C32.6876221,12.1297324 31.5007324,13.3193538 30.041748,13.3193538 L30.041748,13.3193538 Z" id="Shape" fill="#040244"></path>
                <path d="M47.0625,16.6906821 L42.8503417,16.6906821 C42.8173828,16.6906821 42.7847901,16.692518 42.7529297,16.6958225 C42.7521973,16.6958225 42.751831,16.6961896 42.7514648,16.6961896 C42.7144776,16.6998613 42.6785888,16.7064703 42.6434326,16.714548 C42.6350098,16.7163838 42.6265869,16.7185869 42.6181641,16.7207898 C42.5892334,16.7285003 42.5610352,16.7369452 42.5332031,16.7468587 C42.5251464,16.749796 42.5170898,16.7527334 42.508667,16.7560379 C42.4716797,16.7707245 42.4354248,16.7868799 42.4006348,16.8059726 L38.885376,18.6979846 L38.885376,16.5897112 C40.0187989,14.8945007 40.680542,12.8567232 40.680542,10.6665715 C40.680542,4.78492167 35.908081,0 30.041748,0 C25.7303467,0 22.0096435,2.58448925 20.3404541,6.28957241 C18.6708984,2.58448925 14.9501953,0 10.638794,0 C4.77246094,0 -5.68434189e-14,4.78492167 -5.68434189e-14,10.6669386 C-5.68434189e-14,12.8567232 0.662109375,14.8945007 1.79516606,16.5897112 L1.79516606,32.3514605 C1.79516606,34.3532556 3.41967769,35.9816417 5.41589353,35.9816417 L16.5904541,35.9816417 C17.1082763,35.9816417 17.5279541,35.5608681 17.5279541,35.0416939 C17.5279541,34.5225196 17.1082763,34.1017461 16.5904541,34.1017461 L5.41589353,34.1017461 C4.45349119,34.1017461 3.67016606,33.3167428 3.67016606,32.3514605 L3.67016606,18.7203818 C5.53857422,20.3472993 7.97607422,21.3335101 10.6391602,21.3335101 C14.9505615,21.3335101 18.6708984,18.7490209 20.3404541,15.0439376 C22.0100098,18.7486537 25.7307129,21.3335101 30.041748,21.3335101 C32.7048339,21.3335101 35.1423339,20.3472993 37.010376,18.7203818 L37.010376,32.3514605 C37.010376,33.3167428 36.227417,34.1017461 35.2650146,34.1017461 L24.0904541,34.1017461 C23.5726318,34.1017461 23.1529541,34.5225196 23.1529541,35.0416939 C23.1529541,35.5608681 23.5726318,35.9816417 24.0904541,35.9816417 L35.2646484,35.9816417 C37.2612305,35.9816417 38.885376,34.3532556 38.885376,32.3514605 L38.885376,29.1629814 L42.4006348,31.0549935 C42.4343261,31.0733519 42.4691162,31.08914 42.5050049,31.1034595 C42.5130615,31.106764 42.5211182,31.1093342 42.5291748,31.1126387 C42.5548096,31.1218178 42.5811768,31.1302627 42.607544,31.1372389 C42.6174317,31.1398091 42.6269531,31.1423792 42.6368408,31.1449494 C42.6628417,31.1508241 42.6895752,31.1559644 42.7163086,31.1596361 C42.7254638,31.1611047 42.7346192,31.1625734 42.7437744,31.1640421 C42.7789307,31.1680809 42.8144531,31.170284 42.850708,31.170284 L47.0625,31.170284 C47.5803223,31.170284 48,30.7495104 48,30.2303362 L48,17.6306298 C48,17.1114556 47.5803223,16.6906821 47.0625,16.6906821 L47.0625,16.6906821 Z M10.638794,19.4536146 C5.80664062,19.4536146 1.875,15.5117086 1.875,10.6669386 C1.875,5.82180157 5.80664062,1.87989556 10.638794,1.87989556 C15.4709473,1.87989556 19.4018555,5.82070004 19.4029541,10.6651028 L19.4029541,10.6669386 L19.4029541,10.6687745 C19.4018555,15.51281 15.4709473,19.4536146 10.638794,19.4536146 Z M30.041748,19.4536146 C25.2099609,19.4536146 21.2790527,15.51281 21.2779541,10.6687745 C21.2779541,10.6680402 21.2779541,10.6673058 21.2779541,10.6665715 C21.2779541,10.6662043 21.2779541,10.66547 21.2779541,10.6647357 C21.2790527,5.82070004 25.2099609,1.87989556 30.041748,1.87989556 C34.8742676,1.87989556 38.8059082,5.82180157 38.8059082,10.6665715 C38.8059082,15.5117086 34.8742676,19.4536146 30.041748,19.4536146 Z M38.885376,20.8315927 L41.9128417,19.202105 L41.9128417,28.658861 L38.885376,27.0293734 L38.885376,20.8315927 Z M46.125,29.2903884 L43.7878417,29.2903884 L43.7878417,18.5705776 L46.125,18.5705776 L46.125,29.2903884 Z" id="Shape" fill="#040244"></path>
                <path d="M20.3404541,34.1017461 C19.8240967,34.1017461 19.4029541,34.5239883 19.4029541,35.0416939 C19.4029541,35.5593995 19.8240967,35.9816417 20.3404541,35.9816417 C20.8568115,35.9816417 21.2779541,35.5593995 21.2779541,35.0416939 C21.2779541,34.5239883 20.8568115,34.1017461 20.3404541,34.1017461 Z" id="Path" fill="#040244"></path>
            </g>
        </g>
    </g>
</svg>