<?xml version="1.0" encoding="UTF-8"?>
<svg width="57px" height="51px" viewBox="0 0 57 51" version="1.1" xmlns="http://www.w3.org/2000/svg" xmlns:xlink="http://www.w3.org/1999/xlink">
    <!-- Generator: Sketch 60.1 (88133) - https://sketch.com -->
    <title>Onboarding  Copy</title>
    <desc>Created with Sketch.</desc>
    <g id="Pantallas" stroke="none" stroke-width="1" fill="none" fill-rule="evenodd">
        <g id="Onboarding-" transform="translate(-18.000000, -226.000000)" fill-rule="nonzero">
            <g id="browser" transform="translate(24.000000, 228.000000)">
                <rect id="Rectangle-path" fill="#E0F8F8" x="0.8" y="0.8" width="47" height="46.4" rx="2"></rect>
                <rect id="Rectangle-path" fill="#FFFFFF" x="27.2" y="15.2" width="11.2" height="11.2"></rect>
                <path d="M46.7999999,4 L46.7999999,10.4 L0.799999879,10.4 L0.799999879,4 C0.799999879,3.15123567 1.15214401,2.33716747 1.77959136,1.73700043 C2.40703872,1.1368334 3.25811001,0.799766496 4.14545453,0.799999879 L43.4545452,0.799999879 C44.3418897,0.799766496 45.192961,1.1368334 45.8204084,1.73700043 C46.4478557,2.33716747 46.7999999,3.15123567 46.7999999,4 Z" id="Shape" fill="#009EA3"></path>
                <circle id="Oval" fill="#028A8C" cx="5.6" cy="5.6" r="1.6"></circle>
                <circle id="Oval" fill="#028A8C" cx="12" cy="5.6" r="1.6"></circle>
                <circle id="Oval" fill="#028A8C" cx="18.4" cy="5.6" r="1.6"></circle>
                <circle id="Oval" fill="#51D6DA" cx="14.4" cy="20.8" r="6.4"></circle>
                <circle id="Oval" fill="#51D6DA" cx="14.4" cy="36.8" r="6.4"></circle>
                <rect id="Rectangle-path" fill="#FFFFFF" x="27.2" y="31.2" width="11.2" height="11.2" rx="1"></rect>
                <polygon id="Shape" fill="#FFFFFF" points="0 44 0 33.6 0 4 1.6 4 1.6 33.6 1.6 44"></polygon>
                <g id="Group" fill="#040244">
                    <path d="M0.8,40 C0.35870108,40.0012742 0.001274232,40.3587011 0,40.8 L0,44 L1.6,44 L1.6,40.8 C1.59872577,40.3587011 1.24129892,40.0012742 0.8,40 Z" id="Shape"></path>
                    <path d="M1.6,4 L0,4 L0,34.4 C0,34.8418278 0.3581722,35.2 0.8,35.2 C1.2418278,35.2 1.6,34.8418278 1.6,34.4 L1.6,4 Z" id="Shape"></path>
                    <path d="M-2.77555756e-16,37.6 C0.00316712,37.8117686 0.086001792,38.0145708 0.232,38.168 L0.352,38.264 C0.396604784,38.2942624 0.4450272,38.3184736 0.496,38.336 C0.541328064,38.3591146 0.589868776,38.3752949 0.64,38.384 C0.692902992,38.3929986 0.746362704,38.3983445 0.8,38.4 C1.01181358,38.3970532 1.21469297,38.314187 1.368,38.168 C1.66996182,37.849532 1.66996182,37.350468 1.368,37.032 C1.29147194,36.959737 1.20187372,36.9027199 1.104,36.864 C1.00782215,36.8230072 0.904541808,36.801264 0.8,36.8 C0.588247336,36.8032455 0.385472648,36.886069 0.232,37.032 C0.086068952,37.1854726 0.003245488,37.3882474 -2.77555756e-16,37.6 L-2.77555756e-16,37.6 Z" id="Shape"></path>
                    <path d="M44,48 L4,48 C1.79193923,47.9973991 0.002600912,46.2080608 0,44 C0,43.5581722 0.3581722,43.2 0.8,43.2 C1.2418278,43.2 1.6,43.5581722 1.6,44 C1.60145497,45.3248802 2.67511974,46.398545 4,46.4 L44,46.4 C45.3248802,46.398545 46.398545,45.3248802 46.4,44 L46.4,4 C46.398545,2.67511974 45.3248802,1.60145497 44,1.6 L4,1.6 C2.67511974,1.60145497 1.60145497,2.67511974 1.6,4 C1.6,4.4418278 1.2418278,4.8 0.8,4.8 C0.3581722,4.8 0,4.4418278 0,4 C0.002600912,1.79193923 1.79193923,0.002600912 4,0 L44,0 C46.2080608,0.002600912 47.9973991,1.79193923 48,4 L48,44 C47.9973991,46.2080608 46.2080608,47.9973991 44,48 Z" id="Shape"></path>
                    <path d="M5.6,8 C4.2745166,8 3.2,6.9254834 3.2,5.6 C3.2,4.2745166 4.2745166,3.2 5.6,3.2 C6.9254834,3.2 8,4.2745166 8,5.6 C7.99854503,6.92488026 6.92488026,7.99854503 5.6,8 Z M5.6,4.8 C5.1581722,4.8 4.8,5.1581722 4.8,5.6 C4.8,6.0418278 5.1581722,6.4 5.6,6.4 C6.0418278,6.4 6.4,6.0418278 6.4,5.6 C6.39960304,5.15833673 6.04166327,4.80039696 5.6,4.8 Z" id="Shape"></path>
                    <path d="M12,8 C10.6745166,8 9.6,6.9254834 9.6,5.6 C9.6,4.2745166 10.6745166,3.2 12,3.2 C13.3254834,3.2 14.4,4.2745166 14.4,5.6 C14.398545,6.92488026 13.3248802,7.99854503 12,8 Z M12,4.8 C11.5581722,4.8 11.2,5.1581722 11.2,5.6 C11.2,6.0418278 11.5581722,6.4 12,6.4 C12.4418278,6.4 12.8,6.0418278 12.8,5.6 C12.799603,5.15833673 12.4416633,4.80039696 12,4.8 Z" id="Shape"></path>
                    <path d="M18.4,8 C17.0745166,8 16,6.9254834 16,5.6 C16,4.2745166 17.0745166,3.2 18.4,3.2 C19.7254834,3.2 20.8,4.2745166 20.8,5.6 C20.798545,6.92488026 19.7248802,7.99854503 18.4,8 Z M18.4,4.8 C17.9581722,4.8 17.6,5.1581722 17.6,5.6 C17.6,6.0418278 17.9581722,6.4 18.4,6.4 C18.8418278,6.4 19.2,6.0418278 19.2,5.6 C19.199603,5.15833673 18.8416633,4.80039696 18.4,4.8 Z" id="Shape"></path>
                    <path d="M47.2,11.2 L0.8,11.2 C0.3581722,11.2 0,10.8418278 0,10.4 C0,9.95817224 0.3581722,9.6 0.8,9.6 L47.2,9.6 C47.6418278,9.6 48,9.95817224 48,10.4 C48,10.8418278 47.6418278,11.2 47.2,11.2 Z" id="Shape"></path>
                    <path d="M14.4,28 C10.4235498,28 7.2,24.7764502 7.2,20.8 C7.2,16.8235498 10.4235498,13.6 14.4,13.6 C18.3764502,13.6 21.6,16.8235498 21.6,20.8 C21.5955911,24.7746226 18.3746226,27.9955911 14.4,28 Z M14.4,15.2 C11.3072054,15.2 8.8,17.7072054 8.8,20.8 C8.8,23.8927946 11.3072054,26.4 14.4,26.4 C17.4927946,26.4 20,23.8927946 20,20.8 C19.9964291,17.7086858 17.4913142,15.2035709 14.4,15.2 Z" id="Shape"></path>
                    <path d="M14.4,44 C10.4235498,44 7.2,40.7764502 7.2,36.8 C7.2,32.8235498 10.4235498,29.6 14.4,29.6 C18.3764502,29.6 21.6,32.8235498 21.6,36.8 C21.5955911,40.7746226 18.3746226,43.9955911 14.4,44 Z M14.4,31.2 C11.3072054,31.2 8.8,33.7072054 8.8,36.8 C8.8,39.8927946 11.3072054,42.4 14.4,42.4 C17.4927946,42.4 20,39.8927946 20,36.8 C19.9964291,33.7086858 17.4913142,31.2035709 14.4,31.2 Z" id="Shape"></path>
                    <circle id="Oval" cx="11.2" cy="20" r="1"></circle>
                    <circle id="Oval" cx="17.6" cy="20" r="1"></circle>
                    <path d="M14.4,24.000001 C13.4359597,23.9991908 12.5656411,23.4225579 12.18904,22.53512 C12.0164621,22.1282408 12.2064008,21.6584979 12.61328,21.48592 C13.0201592,21.3133421 13.4899021,21.5032808 13.66248,21.91016 C13.7872602,22.2070794 14.0779266,22.4002177 14.4,22.4002177 C14.7220734,22.4002177 15.0127398,22.2070794 15.13752,21.91016 C15.3100979,21.5032808 15.7798408,21.3133421 16.18672,21.48592 C16.5935992,21.6584979 16.7835379,22.1282408 16.61096,22.53512 C16.4901341,22.8197109 16.315591,23.0783477 16.09688,23.29688 C15.6472394,23.747549 15.0366152,24.0005674 14.4,24.000001 L14.4,24.000001 Z" id="Shape"></path>
                    <circle id="Oval" cx="11.2" cy="36" r="1"></circle>
                    <circle id="Oval" cx="17.6" cy="36" r="1"></circle>
                    <path d="M15.87424,40.17776 C15.5530501,40.1774687 15.2630774,39.9853922 15.13752,39.68976 C15.0127398,39.3928406 14.7220734,39.1997023 14.4,39.1997023 C14.0779266,39.1997023 13.7872602,39.3928406 13.66248,39.68976 C13.4899021,40.0966392 13.0201592,40.2865779 12.61328,40.114 C12.2064008,39.941422 12.0164621,39.4716792 12.18904,39.0648 C12.3098659,38.7802091 12.484409,38.5215723 12.70312,38.30304 C12.9215632,38.0834141 13.1808584,37.9086391 13.4664,37.78856 C14.0636965,37.5385644 14.7363035,37.5385644 15.3336,37.78856 C15.6194754,37.9088186 15.8790484,38.0838693 16.09768,38.30384 C16.316047,38.522183 16.4903145,38.7805423 16.61096,39.0648 C16.7152975,39.3119844 16.6889957,39.594985 16.5408925,39.8187079 C16.3927893,40.0424307 16.1425425,40.177181 15.87424,40.17768 L15.87424,40.17776 Z" id="Shape"></path>
                    <path d="M36.8,27.2 L28.8,27.2 C27.4751198,27.198545 26.401455,26.1248802 26.4,24.8 L26.4,16.8 C26.401455,15.4751198 27.4751198,14.401455 28.8,14.4 L36.8,14.4 C37.2418278,14.4 37.6,14.7581722 37.6,15.2 C37.6,15.6418278 37.2418278,16 36.8,16 L28.8,16 C28.3583367,16.000397 28.000397,16.3583367 28,16.8 L28,24.8 C28.000397,25.2416633 28.3583367,25.599603 28.8,25.6 L36.8,25.6 C37.2416633,25.599603 37.599603,25.2416633 37.6,24.8 L37.6,21.6 C37.6,21.1581722 37.9581722,20.8 38.4,20.8 C38.8418278,20.8 39.2,21.1581722 39.2,21.6 L39.2,24.8 C39.198545,26.1248802 38.1248802,27.198545 36.8,27.2 Z" id="Shape"></path>
                    <path d="M36.8,43.2 L28.8,43.2 C27.4751198,43.198545 26.401455,42.1248802 26.4,40.8 L26.4,32.8 C26.401455,31.4751198 27.4751198,30.401455 28.8,30.4 L36.8,30.4 C38.1248802,30.401455 39.198545,31.4751198 39.2,32.8 L39.2,40.8 C39.198545,42.1248802 38.1248802,43.198545 36.8,43.2 Z M28.8,32 C28.3583367,32.000397 28.000397,32.3583367 28,32.8 L28,40.8 C28.000397,41.2416633 28.3583367,41.599603 28.8,41.6 L36.8,41.6 C37.2416633,41.599603 37.599603,41.2416633 37.6,40.8 L37.6,32.8 C37.599603,32.3583367 37.2416633,32.000397 36.8,32 L28.8,32 Z" id="Shape"></path>
                    <path d="M32.8,24.0000005 C32.5877863,24.0002458 32.3842292,23.9158862 32.2344,23.7656 L29.8344,21.3656 C29.5312222,21.0516969 29.5355581,20.5527322 29.8441451,20.2441451 C30.1527322,19.9355581 30.6516969,19.9312222 30.9656,20.2344 L32.8,22.06872 L40.2344,14.6344 C40.5483031,14.3312222 41.0472678,14.3355581 41.3558549,14.6441451 C41.6644419,14.9527322 41.6687778,15.4516969 41.3656,15.7656 L33.3656,23.7656 C33.2157708,23.9158862 33.0122137,24.0002458 32.8,24.0000005 Z" id="Shape"></path>
                </g>
            </g>
        </g>
    </g>
</svg>