<?xml version="1.0" encoding="UTF-8"?>
<svg width="64px" height="64px" viewBox="0 0 64 64" version="1.1" xmlns="http://www.w3.org/2000/svg" xmlns:xlink="http://www.w3.org/1999/xlink">
    <!-- Generator: Sketch 60.1 (88133) - https://sketch.com -->
    <title>tick</title>
    <desc>Created with Sketch.</desc>
    <g id="Pantallas" stroke="none" stroke-width="1" fill="none" fill-rule="evenodd">
        <g id="Encuesta-creada-" transform="translate(-128.000000, -172.000000)" fill-rule="nonzero">
            <g id="tick" transform="translate(128.000000, 172.000000)">
                <path d="M63,23 L63,56.9836618 C63,58.7269065 62.2662232,60.2961718 61.094618,61.3952488 C60.0317385,62.3913182 58.6095278,63 57.0469,63 L6.95212482,63 C5.38949706,63 3.96728628,62.3913182 2.90586955,61.3962346 C1.73377682,60.2961718 1,58.7269065 1,56.9836618 L1,23 L63,23 Z" id="Path" fill="#51D6DA"></path>
                <path d="M32,63 L6.90393286,63 C3.64342204,63 1,60.3200603 1,57.0139024 L1,23 L7.55777602,28.7384545 L7.96691154,29.0831933 L7.96691154,46.1480097 C7.96691154,51.9536467 10.2771251,57.4562273 15.5446249,59.7340534 C20.4044399,61.8358323 29.0509353,63 32,63 L32,63 Z" id="Path" fill="#009EA3"></path>
                <path d="M63,23.4998778 L39.1687729,3.60097729 C35.0152872,0.133007569 28.9847128,0.133007569 24.8312271,3.60097729 L1,23.4998778 L1,23.4998778 L8.02421266,29.3645749 L24.8312271,43.3982893 C28.9852003,46.8672369 35.0157747,46.8672369 39.1682853,43.3982893 L55.9767624,29.3645749 L63,23.4998778 Z" id="Path" fill="#028A8C"></path>
                <path d="M56,10.9322188 L56,29.2934165 L39.1748905,43.3871604 C35.0182709,46.8709465 28.9817291,46.8709465 24.8236455,43.3871604 L8,29.2934165 L8,10.9322188 C8,7.1042278 11.0853762,4 14.8915844,4 L49.1098798,4 C52.9155999,4 56,7.1042278 56,10.9322188 Z" id="Path" fill="#E0F8F8"></path>
                <path d="M56,10.7864198 L56,24.6447908 L39.1748905,38.4421139 C35.0182709,41.8526287 28.9817291,41.8526287 24.8236455,38.4421139 L8,24.6447908 L8,10.7864198 C8,7.03893942 11.0853762,4 14.8915844,4 L49.1098798,4 C52.9155999,4 56,7.03893942 56,10.7864198 Z" id="Path" fill="#E0F8F8"></path>
                <path d="M62,14.5002489 C62,21.9559742 55.9558629,28 48.5,28 C41.0441371,28 35,21.9559742 35,14.5002489 C35,7.04402578 41.0441371,1 48.5,1 C55.9558629,1 62,7.04402578 62,14.5002489 Z" id="Path" fill="#51D6DA"></path>
                <path d="M62,13.9995114 C62,20.4384442 57.4860037,25.8040586 51.5009606,27 C45.5154371,25.8055243 41,20.4384442 41,13.9995114 C41,7.56106721 45.5154371,2.19447573 51.5009606,1 C57.4860037,2.19545287 62,7.56106721 62,13.9995114 L62,13.9995114 Z" id="Path" fill="#51D6DA"></path>
                <path d="M56.4465553,58.7876488 C56.6237156,58.9303149 56.8383525,59 57.0520157,59 C57.3235969,59 57.5932312,58.887468 57.7806126,58.6694666 C58.1154654,58.2805485 58.0609545,57.7028213 57.6584497,57.3788798 L42.5535716,45.2122386 C42.1515537,44.8882971 41.5543671,44.9410317 41.2190276,45.3304208 C40.8846615,45.7193389 40.9391724,46.297066 41.3411904,46.6210076 L56.4465553,58.7876488 Z" id="Path" fill="#040244"></path>
                <path d="M6.94750226,59 C7.1611667,59 7.37629116,58.9307837 7.55345253,58.7881132 L22.6588931,46.6206268 C23.0609132,46.2971462 23.1154244,45.7189304 22.78057,45.3300002 C22.4457155,44.9410701 21.8485259,44.8883338 21.4465059,45.2122853 L6.34155199,57.3793009 C5.93904522,57.7032524 5.88453402,58.2809973 6.21938849,58.6699274 C6.406284,58.8879354 6.67640646,59 6.94750226,59 L6.94750226,59 Z" id="Path" fill="#040244"></path>
                <path d="M17.9540504,28 L38.0464397,28 C38.573201,28 39,27.5520164 39,26.9997431 C39,26.4474699 38.573201,26 38.0464397,26 L17.9540504,26 C17.4272891,26 17,26.4474699 17,26.9997431 C17,27.5520164 17.4272891,28 17.9540504,28 Z" id="Path" fill="#040244"></path>
                <path d="M46.0422549,32 L17.9577451,32 C17.4289439,32 17,32.4479836 17,33.0002569 C17,33.5525303 17.4289439,34 17.9577451,34 L46.0422549,34 C46.571548,34 47,33.5525303 47,33.0002569 C47,32.4479836 46.5710561,32 46.0422549,32 L46.0422549,32 Z" id="Path" fill="#040244"></path>
                <path d="M17.960296,17 L32.0401972,17 C32.5704069,17 33,16.5520164 33,15.9997431 C33,15.4479836 32.5704069,15 32.0401972,15 L17.960296,15 C17.4300863,15 17,15.4479836 17,15.9997431 C17,16.5520164 17.4300863,17 17.960296,17 Z" id="Path" fill="#040244"></path>
                <path d="M26,22.0002568 C26,22.5525301 26.436655,23 26.9749624,23 L34.0255382,23 C34.5638457,23 35,22.5525301 35,22.0002568 C35,21.4479836 34.5638457,21 34.0255382,21 L26.9749624,21 C26.436655,21 26,21.4479836 26,22.0002568 L26,22.0002568 Z" id="Path" fill="#040244"></path>
                <path d="M17.9415463,23 L24.0584537,23 C24.5783111,23 25,22.5525301 25,22.0002568 C25,21.4479836 24.5783111,21 24.0584537,21 L17.9415463,21 C17.4216889,21 17,21.4479836 17,22.0002568 C17,22.5525301 17.4216889,23 17.9415463,23 Z" id="Path" fill="#040244"></path>
                <path d="M53.1916447,7.56862636 L48.1423913,19.293094 L43.6633085,13.985246 C43.3288536,13.5888433 42.7349661,13.5373061 42.336137,13.8701304 C41.9377919,14.2034362 41.8860023,14.7949097 42.2209412,15.1913124 L47.6840282,21.6652493 C47.8645662,21.8791045 48.1293228,22 48.4052119,22 C48.4507093,22 48.4966909,21.9966285 48.5431564,21.9898853 C48.866479,21.9422013 49.1423681,21.7312361 49.2711163,21.4316462 L54.9234536,8.30700481 C55.1286763,7.83112879 54.906997,7.28011446 54.4287893,7.07589236 C53.9505816,6.87215189 53.3968675,7.09275035 53.1916447,7.56862636 Z" id="Path" fill="#040244"></path>
                <path d="M63.1818843,22.2943541 L61.2046273,20.6483548 C62.1832449,18.7137809 62.7321304,16.5370189 62.7321304,14.2562528 C62.7321304,11.6771463 62.0328387,9.15126264 60.7109234,6.95252795 C60.439899,6.50233171 59.8558537,6.35731194 59.4060998,6.62782033 C58.9563457,6.89832859 58.8108228,7.48231408 59.0813588,7.93202194 C60.2260094,9.83485769 60.8310531,12.0218735 60.8310531,14.2557645 C60.8310531,20.1171038 56.6641145,25.1898674 50.9223046,26.3168226 C50.1414614,26.4706315 49.3391316,26.5487567 48.5382668,26.5487567 C41.7597276,26.5487567 36.2449922,21.0340978 36.2449922,14.2557645 C36.2449922,7.47840783 41.7597276,1.96423718 48.5382668,1.96423718 C49.3391316,1.96423718 50.1409731,2.04236233 50.9223046,2.19617113 C53.1476344,2.63318371 55.2083962,3.68201383 56.882399,5.23035666 C57.2676931,5.58631434 57.8693183,5.5628768 58.2258008,5.17762219 C58.5822833,4.79236758 58.5583551,4.19080393 58.173061,3.83435788 C56.2402421,2.04724509 53.8596227,0.835817032 51.2895304,0.330933319 C50.3875808,0.153686856 49.4621913,0.0633545583 48.5382668,0.0633545583 C45.3157626,0.0633545583 42.3418196,1.14343487 39.9563169,2.95935621 L39.7878422,2.81873094 C35.2756527,-0.939576979 28.7246764,-0.939576979 24.2110219,2.81873094 L23.7837312,3.17517699 L14.8814352,3.17517699 C10.5553004,3.17517699 7.03540195,6.69373833 7.03540195,11.018942 L7.03540195,17.1820396 L0.604555319,22.5355654 C0.585510332,22.5433779 0.566465345,22.5511904 0.547420358,22.5604678 C0.213401138,22.7167181 0,23.052168 0,23.4208211 L0,49.5600311 C0,50.0849345 0.425825673,50.5102281 0.950782813,50.5102281 C1.47573995,50.5102281 1.90156563,50.0849345 1.90156563,49.5600311 L1.90156563,25.4491452 L24.2115102,44.0233994 C26.4680932,45.9023092 29.2340068,46.8422524 31.9999203,46.8417642 C34.7658339,46.8417642 37.5317474,45.9023092 39.7873539,44.0233994 L62.0982751,25.4491452 L62.0982751,57.0883657 C62.0982751,59.8515546 59.850482,62.0991175 57.0870102,62.0991175 L6.91234224,62.0991175 C4.14887032,62.0991175 1.9010772,59.8515546 1.9010772,57.0883657 L1.9010772,53.3617961 C1.9010772,52.8368927 1.47525153,52.411599 0.950294387,52.411599 C0.425825673,52.411599 0,52.8368927 0,53.3617961 L0,57.0883657 C0,60.8994081 3.1009095,64 6.91234224,64 L57.0870102,64 C60.898443,64 63.9993523,60.8994081 63.9993523,57.0883657 L63.9993523,23.4467 C63.9993523,23.4462117 63.9993523,23.4457234 63.9993523,23.4452352 C64.0110723,22.984785 63.8684793,22.8661325 63.1818843,22.2943541 Z M36.9516088,3.17517699 L27.0477436,3.17517699 C30.1257014,1.47839638 33.8746276,1.47839638 36.9516088,3.17517699 Z M7.03540195,19.6551889 L7.03540195,27.2499299 L2.47437926,23.4525594 L7.03540195,19.6551889 Z M38.5709183,42.5629474 C34.7638805,45.7338519 29.2364485,45.7338519 25.4279457,42.5624591 L8.93647915,28.8324524 L8.93647915,11.018942 C8.93647915,7.74159195 11.6032612,5.07557124 14.8814352,5.07557124 L24.1309354,5.07557124 L24.1343538,5.07557124 L37.7226853,5.07557124 C35.6169969,7.55213847 34.3444032,10.7581992 34.3444032,14.2562528 C34.3444032,22.0824396 40.7117667,28.4496392 48.5382668,28.4496392 C49.4621913,28.4496392 50.3880691,28.3597953 51.289042,28.1820606 C52.6304906,27.9188764 53.8962476,27.4662389 55.0638499,26.8597924 L55.0638499,28.8319642 L38.5709183,42.5629474 Z M56.9649271,27.2494417 L56.9649271,25.6742433 C58.2316609,24.7367415 59.3328499,23.5961143 60.2230795,22.304608 C60.6386502,22.6503118 61.1416323,23.0692579 61.5640398,23.4208211 L56.9649271,27.2494417 Z" id="Shape" fill="#040244"></path>
            </g>
        </g>
    </g>
</svg>