<?xml version="1.0" encoding="UTF-8"?>
<svg width="168px" height="168px" viewBox="0 0 168 168" version="1.1" xmlns="http://www.w3.org/2000/svg" xmlns:xlink="http://www.w3.org/1999/xlink">
    <!-- Generator: Sketch 60.1 (88133) - https://sketch.com -->
    <title>film</title>
    <desc>Created with Sketch.</desc>
    <g id="Pantallas" stroke="none" stroke-width="1" fill="none" fill-rule="evenodd">
        <g id="Home---Firt-Time" transform="translate(-76.000000, -104.000000)" fill-rule="nonzero">
            <g id="film" transform="translate(76.000000, 104.000000)">
                <path d="M163.927273,61.2925176 C154.021248,26.2153546 121.779272,0.509090909 83.5318157,0.509090909 C37.3987601,0.509090909 0,37.907851 0,84.0409066 C0,122.288363 25.7062637,154.530339 60.7834266,164.436364 L163.927273,61.2925176 Z" id="Path" fill="#E7EAFB"></path>
                <path d="M168,83.7647809 C168,75.8605111 166.903054,68.2129797 164.856338,60.9634744 L135.965521,32.0727273 L122.132361,44.0854643 L110.119595,32.0727273 L55.8796508,44.0854643 L43.8668847,32.0727273 L32.5818182,135.456508 L61.4726351,164.347255 C68.7218308,166.393966 76.3693807,167.490909 84.2736696,167.490909 C130.514152,167.490909 168,130.005152 168,83.7647809 Z" id="Path" fill="#C2CAF4"></path>
                <path d="M124.128558,31.0545455 L124.128558,38.3682967 L109.56107,38.3682967 L109.56107,31.0545455 L83.7039574,31.0545455 L65.1636364,82.9818182 L83.7039574,134.909091 L109.56107,134.909091 L109.56107,127.59534 L124.128558,127.59534 L124.128558,134.909091 L135.418182,134.909091 L135.418182,31.0545455 L124.128558,31.0545455 Z M124.128558,116.259206 L109.56107,116.259206 L109.56107,101.631703 L124.128558,101.631703 L124.128558,116.259206 Z M124.128558,90.2955695 L109.56107,90.2955695 L109.56107,75.6680669 L124.128558,75.6680669 L124.128558,90.2955695 Z M124.128558,64.3319331 L109.56107,64.3319331 L109.56107,49.7044305 L124.128558,49.7044305 L124.128558,64.3319331 Z" id="Shape" fill="#6C85E6"></path>
                <path d="M58.5454545,31.0545455 L58.5454545,38.3682967 L43.917952,38.3682967 L43.917952,31.0545455 L32.5818182,31.0545455 L32.5818182,134.909091 L43.917952,134.909091 L43.917952,127.59534 L58.5454545,127.59534 L58.5454545,134.909091 L84.5090909,134.909091 L84.5090909,31.0545455 L58.5454545,31.0545455 Z M58.5454545,116.259206 L43.917952,116.259206 L43.917952,101.631703 L58.5454545,101.631703 L58.5454545,116.259206 Z M58.5454545,90.2955695 L43.917952,90.2955695 L43.917952,75.6680669 L58.5454545,75.6680669 L58.5454545,90.2955695 Z M58.5454545,64.3319331 L43.917952,64.3319331 L43.917952,49.7044305 L58.5454545,49.7044305 L58.5454545,64.3319331 Z" id="Shape" fill="#99A7EC"></path>
                <polygon id="Path" fill="#4469E0" points="102.836364 37.1636364 102.836364 78.9090909 84.0993016 78.9090909 77.3818182 58.0361962 84.0993016 37.1636364"></polygon>
                <rect id="Rectangle" fill="#E7EAFB" x="66.1818182" y="37.1636364" width="17.3090909" height="41.7454545"></rect>
                <polygon id="Path" fill="#4469E0" points="102.836364 87.0545455 102.836364 128.8 84.0993016 128.8 77.3818182 107.92744 84.0993016 87.0545455"></polygon>
                <rect id="Rectangle" fill="#E7EAFB" x="66.1818182" y="87.0545455" width="17.3090909" height="41.7454545"></rect>
            </g>
        </g>
    </g>
</svg>