<?xml version="1.0" encoding="UTF-8"?>
<svg width="57px" height="51px" viewBox="0 0 57 51" version="1.1" xmlns="http://www.w3.org/2000/svg" xmlns:xlink="http://www.w3.org/1999/xlink">
    <!-- Generator: Sketch 60.1 (88133) - https://sketch.com -->
    <title>Onboarding  Copy 2</title>
    <desc>Created with Sketch.</desc>
    <g id="Pantallas" stroke="none" stroke-width="1" fill="none" fill-rule="evenodd">
        <g id="Onboarding-" transform="translate(-18.000000, -317.000000)" fill-rule="nonzero">
            <g id="Group-2" transform="translate(24.000000, 324.000000)">
                <g id="shining">
                    <path d="M41.9630409,19.2422924 C41.1921404,19.1024094 40.4450994,18.9116257 39.7429708,18.675462 C34.596117,16.944655 31.6865497,12.739462 30.7293567,7.32603509 C30.6385029,6.81309942 29.8986667,6.81309942 29.8077193,7.32603509 C28.6952047,13.6165614 24.9924678,18.0649357 18.6059415,19.2502456 C18.0979649,19.3444678 18.098152,20.0763509 18.6062222,20.1704795 C24.9337076,21.3408187 28.701193,25.7809591 29.8099649,32.0211462 C29.8797661,32.4143158 30.2948304,32.4163743 30.2712515,32.4072047 C30.4982456,32.406924 30.6923977,32.2437427 30.7316023,32.020117 C31.2960936,28.8020585 32.8810292,24.4301287 37.2260117,21.8775205 C38.6140819,21.062924 40.2082807,20.4860819 41.9640702,20.1629006 C42.1862924,20.1220117 42.3476023,19.9282339 42.347322,19.7021754 C42.3470409,19.4762105 42.1854503,19.2826199 41.9630409,19.2422924 Z" id="SVGCleanerId_0" fill="#F4A32C"></path>
                    <path d="M41.9630409,19.2422924 C41.1921404,19.1024094 40.4450994,18.9116257 39.7429708,18.675462 C34.596117,16.944655 31.6865497,12.739462 30.7293567,7.32603509 C30.6385029,6.81309942 29.8986667,6.81309942 29.8077193,7.32603509 C28.6952047,13.6165614 24.9924678,18.0649357 18.6059415,19.2502456 C18.0979649,19.3444678 18.098152,20.0763509 18.6062222,20.1704795 C24.9337076,21.3408187 28.701193,25.7809591 29.8099649,32.0211462 C29.8797661,32.4143158 30.2948304,32.4163743 30.2712515,32.4072047 C30.4982456,32.406924 30.6923977,32.2437427 30.7316023,32.020117 C31.2960936,28.8020585 32.8810292,24.4301287 37.2260117,21.8775205 C38.6140819,21.062924 40.2082807,20.4860819 41.9640702,20.1629006 C42.1862924,20.1220117 42.3476023,19.9282339 42.347322,19.7021754 C42.3470409,19.4762105 42.1854503,19.2826199 41.9630409,19.2422924 Z" id="SVGCleanerId_0_1_" fill="#E0F8F8"></path>
                    <path d="M23.4960468,17.4273684 C21.9967251,18.3440468 20.3343158,18.9294971 18.6061287,19.2502456 C18.098152,19.3444678 18.0983392,20.0763509 18.6064094,20.1704795 C24.9338947,21.3408187 28.7013801,25.7809591 29.810152,32.0211462 C29.8799532,32.4143158 30.2950175,32.4163743 30.2714386,32.4072047 C30.4984327,32.406924 30.6925848,32.2437427 30.7317895,32.020117 C31.0443041,30.2386901 31.6706433,28.1038596 32.9036725,26.1196725 C31.2305965,21.4645146 28.0349006,18.5667368 23.4960468,17.4273684 Z" id="Path" fill="#51D6DA"></path>
                    <path d="M20.2264327,32.8555789 C18.4058012,32.2517895 17.2014035,30.8949708 16.6153918,29.0197895 C16.5101287,28.6830409 16.1552281,28.6867836 16.1687953,28.691462 C15.9642573,28.691462 15.7833918,28.8243275 15.7222924,29.0195088 C15.1545263,30.8319064 13.9664094,32.2184795 12.1111579,32.8538012 C11.6907602,32.9977076 11.6902924,33.5950409 12.1111579,33.7391345 C13.9543392,34.3700585 15.1502222,35.7457778 15.7227602,37.5752047 C15.8283977,37.9126082 16.1826433,37.9077427 16.1701988,37.9034386 C16.3750175,37.9030643 16.5559766,37.7694503 16.6164211,37.5737076 C17.0398129,36.2042573 17.7867602,35.1454503 18.8366784,34.4266667 L18.8367719,34.4265731 C19.9845614,33.6403275 20.5479298,33.8684444 20.5470887,33.2989942 C20.5467135,33.0976374 20.4175906,32.918924 20.2264327,32.8555789 Z" id="Path" fill="#51D6DA"></path>
                    <path d="M13.9767018,31.84 C13.9635088,31.8355088 13.951345,31.8291462 13.938807,31.8235322 C13.4005146,32.2861287 12.7825965,32.6238129 12.1111579,32.8538012 C11.6907602,32.9977076 11.6902924,33.5950409 12.1111579,33.7391345 C13.9543392,34.3700585 15.1502222,35.7457778 15.7227602,37.5752047 C15.8283977,37.9126082 16.1826433,37.9077427 16.1701988,37.9034386 C16.829193,37.9022222 16.4786901,37.1152281 17.5766082,35.6409825 C16.9925614,33.8074386 15.7899415,32.4607251 13.9767018,31.84 Z" id="Path" fill="#009EA3"></path>
                    <path d="M12.1186433,7.61815205 C10.290807,7.01192982 9.09164912,5.64996491 8.50760234,3.78245614 C8.40233918,3.4457076 8.04753216,3.44954386 8.06100585,3.45412865 C7.85646784,3.45412865 7.67560234,3.58699415 7.61450292,3.78217544 C7.04795322,5.59064327 5.86226901,6.97964912 4.00336842,7.61637427 C3.58297076,7.7602807 3.58250292,8.35761404 4.00336842,8.5017076 C5.85104094,9.13422222 7.04392982,10.5132164 7.61497076,12.3376842 C7.72060819,12.6750877 8.07494737,12.6702222 8.06231579,12.6659181 C8.2671345,12.6655439 8.44809357,12.5319298 8.50863158,12.3362807 C9.20963743,10.0690526 10.6214737,9.29553216 10.729076,9.1891462 C11.8734971,8.40495906 12.4401404,8.62792982 12.4392992,8.06156725 C12.438924,7.86011696 12.3098012,7.68159064 12.1186433,7.61815205 Z" id="Path" fill="#009EA3"></path>
                    <path d="M5.68832749,6.70334503 C4.39831579,7.73473684 3.68711111,7.44626901 3.68711111,8.05894737 C3.68711111,8.25899415 3.81417544,8.4368655 4.00346199,8.50161404 C5.8511345,9.13412865 7.04402339,10.5131228 7.61506433,12.3375906 C7.72070175,12.6749942 8.07504094,12.6701287 8.06240936,12.6658246 C8.68837427,12.6647018 8.38764912,11.9337544 9.3808655,10.5230409 C8.35826901,7.36626901 5.91934503,6.85436257 5.68832749,6.70334503 Z" id="Path" fill="#028A8C"></path>
                    <path d="M23.5748304,32.539883 C23.1925146,32.460538 21.3992982,32.7694035 19.690386,31.8484211 C19.3489591,31.6643743 18.9234152,31.7920936 18.739462,32.1332398 C18.5555088,32.474386 18.6831345,32.900117 19.0242807,33.0841637 C19.1698713,33.1625731 19.3159298,33.2338713 19.4620819,33.2987135 C18.0301287,33.9276725 16.8732632,35.0630175 16.1974269,36.7411462 C15.5562105,35.1712749 14.4572632,33.977731 12.9313684,33.2968421 C14.4875789,32.602386 15.5702456,31.387883 16.1974269,29.8528187 C16.3317895,30.1844211 16.4543626,30.4147836 16.4590409,30.4243275 C16.6351345,30.7694971 17.0580585,30.9064795 17.4033216,30.730386 C17.7485848,30.5541988 17.8855673,30.131462 17.7093801,29.7861053 C17.7073216,29.7767485 16.8576374,28.2259649 16.9580351,26.1619649 C17.0153918,25.7750643 16.7442339,25.3905029 16.3307602,25.3144327 C15.9544327,25.2403275 15.5374971,25.4790175 15.4404678,25.9017544 C15.3903158,26.1207953 15.7533567,29.910924 13.0028538,31.6694269 C11.2122573,32.8116959 9.1794152,32.4567018 8.80065497,32.5425965 C8,32.7248655 8.00065497,33.8690058 8.80065497,34.0511813 C9.17473684,34.1354854 11.2474386,33.7814269 13.0385965,34.9473684 C15.6985263,36.6804211 15.4050058,40.3698713 15.4227836,40.5351111 C15.4227836,41.4005146 16.659462,41.5953216 16.9323977,40.7509708 C17.0247485,40.4634386 16.6362573,36.8043041 19.2626901,35.0059415 C20.9930292,33.8202573 23.1374035,34.1061988 23.5105497,34.0641871 C24.364538,33.9682807 24.4408889,32.7230877 23.5748304,32.539883 Z" id="Path" fill="#040244"></path>
                    <path d="M47.2481871,18.8470643 C45.9650994,18.7045614 36.818807,19.9893333 32.8215205,11.5967251 C30.7200936,7.18222222 31.2591345,3.18025731 31.1446082,2.67817544 C31.0414971,2.22680702 30.6147368,1.95639766 30.2066901,2.00851462 C29.7413801,2.06119298 29.4327018,2.44650292 29.4327018,2.83443275 L29.4327018,4.65562573 C29.1156023,10.9163977 26.2664795,16.2459883 20.2836023,18.1219181 C16.8286316,19.2057076 13.8292398,18.7375906 13.2692398,18.8600702 C12.3711813,19.0638596 12.3644444,20.3536842 13.2787836,20.5568187 C14.0617544,20.7220585 19.9525614,19.7676725 24.5271579,23.5667836 C24.8254503,23.8143626 25.2679298,23.7732865 25.5156023,23.4752749 C25.7631813,23.1769825 25.7222924,22.7345965 25.4240936,22.4868304 C23.8544094,21.1832515 21.9730526,20.2516959 19.8202573,19.7105029 C25.4879064,18.2829474 28.9666433,14.2372865 30.2981988,8.5702924 C31.6186199,14.2026667 35.0686316,18.2840702 40.797193,19.7045146 C35.1258012,21.1236491 31.5989708,25.1659415 30.2900585,30.8174035 C29.8027602,28.7460117 28.989848,26.7634152 27.7678596,25.0320468 C27.5443275,24.7153216 27.1064327,24.6398129 26.7897076,24.8632515 C26.4728889,25.0867836 26.3974737,25.5246784 26.6209123,25.8414035 C27.0516959,26.4516491 27.439345,27.1166316 27.7735673,27.8179181 C29.7561637,31.9831579 29.405848,36.2208187 29.4345731,36.629614 C29.5085848,37.6738246 31.2122573,37.7264094 31.158924,36.4352749 C31.0626433,34.1080702 31.2431345,26.2243743 37.6109474,22.4833684 C41.9078363,19.9615439 46.6878129,20.6981988 47.325848,20.5546667 C48.2875322,20.3363743 48.1834854,18.9520468 47.2481871,18.8470643 Z" id="Path" fill="#040244"></path>
                    <path d="M8.8477193,15.4208187 C8.8905731,15.1809123 8.70325146,13.3560702 9.59214035,11.5898012 C9.76636257,11.2435088 9.62694737,10.821614 9.28074854,10.6472982 C8.93445614,10.4728889 8.5125614,10.6124912 8.33824561,10.9586901 C8.24954386,11.1350643 8.16711111,11.3179883 8.09104094,11.5066199 C7.45019883,9.9357193 6.35115789,8.74123977 4.82385965,8.05950877 C6.37997661,7.36477193 7.46254971,6.15054971 8.08982456,4.61539181 C8.71663158,6.16177778 9.79050292,7.37076023 11.3532632,8.06194152 C11.2000936,8.12959064 11.046924,8.20416374 10.8948772,8.28631579 C10.5538246,8.47073684 10.4270409,8.8965614 10.6115556,9.23761404 C10.7959766,9.5785731 11.2217076,9.70535673 11.5628538,9.52093567 C13.2193684,8.62474854 15.0291462,8.86849123 15.4030409,8.8268538 C16.2615205,8.72851462 16.3267368,7.48407018 15.4673216,7.30217544 C14.9920936,7.20364912 11.2454737,7.86694737 9.57174269,4.4902924 C8.78493567,2.90619883 8.83957895,1.14488889 8.85033918,0.924070175 C8.90666667,0.541847953 8.64130994,0.153263158 8.22240936,0.0768187135 C7.84842105,0.00280701754 7.42952047,0.240093567 7.33267836,0.665356725 C7.28271345,0.883368421 7.64547368,4.67349708 4.89525146,6.432 C3.1674386,7.53422222 1.15087719,7.24949708 0.770807018,7.29188304 C-0.0831812865,7.38900585 -0.152233918,8.62119298 0.692959064,8.81366082 C1.10109942,8.90554386 3.12991813,8.53745029 4.93090058,9.70984795 C6.85033918,10.9602807 7.24921637,13.2567953 7.31518129,14.5265965 C7.32425731,15.2523041 7.29216374,15.3367018 7.3491462,15.5135439 C7.45403509,15.8381287 7.75054971,16.0560468 8.08683041,16.0560468 C8.47298246,16.0560468 8.78577778,15.7706667 8.8477193,15.4208187 Z" id="Path" fill="#040244"></path>
                </g>
            </g>
        </g>
    </g>
</svg>