<?xml version="1.0" encoding="UTF-8"?>
<svg width="16px" height="24px" viewBox="0 0 16 24" version="1.1" xmlns="http://www.w3.org/2000/svg" xmlns:xlink="http://www.w3.org/1999/xlink">
    <!-- Generator: Sketch 60.1 (88133) - https://sketch.com -->
    <title>Shape</title>
    <desc>Created with Sketch.</desc>
    <g id="Pantallas" stroke="none" stroke-width="1" fill="none" fill-rule="evenodd">
        <g id="Resumen-de-salida" transform="translate(-32.000000, -330.000000)" fill="#179EA4" fill-rule="nonzero">
            <g id="Group-2" transform="translate(16.000000, 318.000000)">
                <g id="popcorn" transform="translate(16.000000, 12.000000)">
                    <path d="M16,7.82281879 C16,7.60805369 15.9550892,7.39328859 15.8652677,7.2 C15.9550892,7.00671141 16,6.79731544 16,6.57718121 C16,5.89530201 15.5459023,5.32080537 14.947092,5.19194631 C15.0169532,5.02013423 15.0518838,4.83221477 15.0518838,4.63355705 C15.0518838,3.85503356 14.4630538,3.22147651 13.7394914,3.22147651 C13.539888,3.22147651 13.3502648,3.26979866 13.1756118,3.36107383 C12.8562464,3.03355705 12.4320891,2.84563758 11.9879715,2.84563758 C11.8731996,2.84563758 11.7584276,2.85637584 11.6486457,2.88322148 C11.548844,2.77583893 11.429082,2.68456376 11.3043299,2.6147651 C11.5638143,2.33020134 11.7185069,1.94362416 11.7185069,1.53557047 C11.7185069,0.687248322 11.079776,0 10.2913426,0 C9.94702671,0 9.62267117,0.12885906 9.36817683,0.365100671 C9.21847427,0.311409396 9.06378163,0.284563758 8.90908899,0.284563758 C8.62964423,0.284563758 8.36017963,0.370469799 8.13063571,0.531543624 C7.65657762,0.0483221477 6.91305493,-0.0322147651 6.34917531,0.375838926 C5.86513705,0.730201342 5.64058322,1.36375839 5.75535518,1.95436242 C5.19646564,2.06711409 4.76232823,2.56107383 4.69246704,3.17315436 C4.53278431,3.12483221 4.34815116,3.09798658 4.14355767,3.11409396 C3.83417239,3.1409396 3.55971771,3.25369128 3.34514405,3.43624161 C3.21540183,3.38791946 3.07567945,3.36644295 2.93595706,3.36644295 C2.21239472,3.36644295 1.62356467,4 1.62356467,4.77852349 C1.62356467,4.82684564 1.62356467,4.87516779 1.62855475,4.92348993 C1.4439216,5.1704698 1.33912981,5.48187919 1.33912981,5.80939597 C1.33912981,6.04026846 1.39402075,6.26577181 1.48384228,6.4590604 C0.73532951,6.50738255 0.141509377,7.17315436 0.141509377,7.99463087 C0.141509377,8.38120805 0.276241676,8.7409396 0.505785593,9.02013423 C0.141509377,9.5033557 -0.0381336888,10.1208054 0.00677707758,10.7436242 L2.03275165,24 L13.7444815,24 L15.7754462,10.7758389 L15.7804363,10.7436242 C15.8153668,10.2711409 15.7205552,9.79865772 15.5109717,9.3852349 C15.5409122,9.25637584 15.5558824,9.12751678 15.5558824,9.00402685 C15.5558824,8.96107383 15.5558824,8.92348993 15.5508923,8.88590604 C15.8353272,8.61744966 16,8.23087248 16,7.82281879 Z M5.44097981,23.1946309 L4.51282397,10.5127517 C4.51781406,10.104698 4.66751661,9.72348993 4.93199113,9.42281879 C5.21642598,9.10067114 5.60066254,8.92885906 6.0148396,8.92885906 C6.84319374,8.92885906 7.51685524,9.65369128 7.51685524,10.5449664 L7.51685524,23.1946309 L5.44097981,23.1946309 Z M15.0369136,10.6630872 L13.1107407,23.1946309 L11.0897562,23.1946309 L12.017912,10.6577181 L12.017912,10.6416107 C12.017912,10.609396 12.017912,10.5771812 12.017912,10.5449664 L12.0229021,10.5020134 L12.0229021,10.485906 C12.0528426,9.61610738 12.7115339,8.92885906 13.5249178,8.92885906 L13.539888,8.92885906 C13.9640453,8.92885906 14.358262,9.1114094 14.6426968,9.44966443 C14.9271317,9.78255034 15.0668541,10.2120805 15.0369136,10.6630872 Z M14.9620623,8.35436242 L14.7325184,8.49395973 C14.3782223,8.25771812 13.9640453,8.12348993 13.539888,8.12348993 L13.5249178,8.12348993 C12.7414744,8.12348993 12.0478526,8.55302013 11.6436557,9.20805369 C11.5688044,9.08993289 11.4839729,8.97181208 11.3891613,8.86442953 C10.960014,8.38657718 10.3861542,8.12348993 9.76738364,8.12348993 C8.98394027,8.12348993 8.29530852,8.55302013 7.89111162,9.20805369 C7.48691473,8.55302013 6.79828297,8.12348993 6.0148396,8.12348993 C5.39606905,8.12348993 4.82220925,8.38657718 4.39306193,8.86442953 C4.29825031,8.97181208 4.21341886,9.08456376 4.13856759,9.20805369 C3.73437069,8.55302013 3.04573894,8.12348993 2.25730548,8.12348993 L2.24233523,8.12348993 C1.82316807,8.12348993 1.41398109,8.25234899 1.05968505,8.48322148 C0.944913087,8.34899329 0.88004198,8.17718121 0.88004198,7.98926174 C0.88004198,7.58657718 1.18443717,7.2590604 1.55869356,7.2590604 C1.68344569,7.2590604 1.80320773,7.2966443 1.91298961,7.36644295 L2.20241455,7.55436242 L2.40700804,7.26442953 C2.4519188,7.2 2.50680974,7.14630872 2.57168085,7.09798658 L3.21041175,6.63087248 L2.47686923,6.37852349 C2.24233523,6.29798658 2.0826525,6.06711409 2.0826525,5.79865772 C2.0826525,5.62684564 2.15251369,5.46040268 2.27227574,5.34228188 L2.44692872,5.17583893 L2.38205761,4.93422819 C2.36708736,4.88053691 2.36209727,4.82684564 2.36209727,4.77315436 C2.36209727,4.44026846 2.61659161,4.16644295 2.92597689,4.16644295 C3.03076868,4.16644295 3.13057038,4.19865772 3.22039192,4.25234899 L3.50981686,4.44026846 L3.71441035,4.15033557 C3.83916248,3.97315436 4.04375597,3.91946309 4.19844861,3.90872483 C4.53278431,3.87651007 4.7723084,4.09127517 4.91702087,4.2147651 C4.96193164,4.25234899 5.00185232,4.28993289 5.041773,4.31677852 L5.33119794,4.50469799 L5.53080134,4.2147651 L5.7154345,3.95704698 L5.53579143,3.71006711 C5.45595007,3.60268456 5.41602939,3.4738255 5.41602939,3.33422819 C5.41602939,3.00134228 5.66553364,2.72751678 5.97491892,2.72751678 L6.1845025,2.73825503 L6.30426454,2.57181208 C6.33919514,2.52348993 6.37911582,2.48053691 6.4190365,2.44295302 L6.6535705,2.2442953 L6.52382829,1.95436242 C6.37911582,1.63221477 6.47891752,1.23489933 6.75337221,1.03087248 C7.06275749,0.805369128 7.48691473,0.891275168 7.6964983,1.22416107 C7.70647847,1.24563758 7.72144873,1.26711409 7.7314289,1.29395973 L8.0008935,1.84697987 L8.36017963,1.35838926 C8.48992184,1.18120805 8.68453516,1.07919463 8.89411874,1.07919463 C9.01887087,1.07919463 9.13863291,1.11677852 9.24841479,1.18657718 L9.53783972,1.37449664 L9.74243322,1.08456376 C9.87217543,0.902013423 10.0717788,0.794630872 10.2813624,0.794630872 C10.6556188,0.794630872 10.960014,1.12214765 10.960014,1.52483221 C10.960014,1.78791946 10.8252817,2.03489933 10.610708,2.16375839 L10.3462335,2.32483221 L10.4360551,2.63624161 C10.4560154,2.70604027 10.4659956,2.77583893 10.4659956,2.84563758 C10.4659956,2.85637584 10.4659956,2.86711409 10.4659956,2.87785235 L10.4659956,3.23221477 L10.7903511,3.28053691 C10.9550239,3.30201342 11.0997364,3.40402685 11.1895579,3.55436242 L11.3542307,3.82818792 L11.6386656,3.71006711 C11.7484474,3.66711409 11.8632194,3.64563758 11.9829815,3.64563758 C12.307337,3.64563758 12.6117322,3.81744966 12.7913752,4.10738255 L13.0358894,4.49932886 L13.3552549,4.18255034 C13.4600467,4.08053691 13.594779,4.02147651 13.7394914,4.02147651 C14.0488767,4.02147651 14.303371,4.29530201 14.303371,4.62818792 C14.303371,4.84832215 14.1935892,5.05234899 14.0139461,5.15973154 L13.7494716,5.32080537 L13.8392931,5.63221477 C13.8492733,5.66442953 13.8542634,5.6966443 13.8592535,5.73422819 L13.9241246,6.33020134 L14.4131529,6.04026846 C14.4979844,5.99194631 14.5878059,5.96510067 14.6876076,5.96510067 C14.9969929,5.96510067 15.2514872,6.23892617 15.2514872,6.57181208 C15.2514872,6.7114094 15.2115665,6.84026846 15.1317252,6.94765101 L14.9520821,7.19463087 L15.1317252,7.44161074 C15.2115665,7.54899329 15.2514872,7.67785235 15.2514872,7.81744966 C15.2514872,8.04295302 15.1417054,8.24697987 14.9620623,8.35436242 Z" id="Shape"></path>
                </g>
            </g>
        </g>
    </g>
</svg>